<svg width="71" height="70" viewBox="0 0 71 70" fill="none" xmlns="http://www.w3.org/2000/svg">
<path d="M5.29102 0.546875L10.7898 62.2798L35.4637 69.1595L60.2066 62.2546L65.7098 0.546875H5.29102ZM54.2861 14.6902L52.4557 35.2554L52.4612 35.3664L52.4535 35.6218V35.6196L51.153 49.9991L51.0098 51.2766L35.5004 55.5663L35.4884 55.5773L20.0058 51.2635L18.9574 39.375H26.5497L27.0884 45.4202L35.5026 47.7006L35.5004 47.705V47.7039L43.9458 45.3912L44.8383 35.5469H27.1835L27.032 33.8827L26.687 29.9841L26.5059 27.8906H45.5093L46.2005 20.2344H17.2566L17.1052 18.5713L16.7606 14.6716L16.5791 12.5781H54.4671L54.2861 14.6902Z" fill="#E1B98E"/>
</svg>
