<svg width="71" height="70" viewBox="0 0 71 70" fill="none" xmlns="http://www.w3.org/2000/svg">
<path d="M47.1211 23.3379C50.2159 23.3379 53.1839 22.1085 55.3723 19.9201C57.5606 17.7318 58.79 14.7637 58.79 11.6689C58.79 8.57415 57.5606 5.60611 55.3723 3.41775C53.1839 1.2294 50.2159 0 47.1211 0L23.7832 0C20.6902 0 17.7239 1.22868 15.5368 3.41575C13.3498 5.60282 12.1211 8.56913 12.1211 11.6621C12.1211 14.7551 13.3498 17.7214 15.5368 19.9085C17.7239 22.0955 20.6902 23.3242 23.7832 23.3242C20.6884 23.3242 17.7204 24.5536 15.532 26.742C13.3437 28.9303 12.1143 31.8984 12.1143 34.9932C12.1143 38.088 13.3437 41.056 15.532 43.2444C17.7204 45.4327 20.6884 46.6621 23.7832 46.6621C21.4753 46.6608 19.2188 47.3438 17.2991 48.6249C15.3794 49.906 13.8827 51.7275 12.9983 53.8592C12.1138 55.9909 11.8814 58.337 12.3303 60.6008C12.7792 62.8647 13.8894 64.9445 15.5203 66.5774C17.1513 68.2103 19.2299 69.3229 21.4932 69.7744C23.7565 70.226 26.1028 69.9963 28.2356 69.1144C30.3683 68.2324 32.1916 66.7378 33.4749 64.8197C34.7583 62.9015 35.444 60.6458 35.4453 58.3379V23.3379H47.1211ZM47.1211 23.3379C44.8146 23.3379 42.5598 24.0219 40.642 25.3033C38.7242 26.5848 37.2294 28.4061 36.3467 30.5371C35.464 32.6681 35.2331 35.0129 35.6831 37.2752C36.1331 39.5374 37.2438 41.6154 38.8747 43.2464C40.5057 44.8773 42.5837 45.988 44.8459 46.438C47.1082 46.888 49.453 46.6571 51.584 45.7744C53.715 44.8917 55.5363 43.3969 56.8178 41.4791C58.0992 39.5613 58.7832 37.3065 58.7832 35C58.7828 31.9071 57.554 28.941 55.3671 26.754C53.1801 24.5671 50.214 23.3383 47.1211 23.3379Z" fill="#E1B98E"/>
</svg>
