<svg width="71" height="70" viewBox="0 0 71 70" fill="none" xmlns="http://www.w3.org/2000/svg">
<path d="M68.7152 31.9255L38.5737 1.78499C36.839 0.049209 34.0237 0.049209 32.2862 1.78499L26.0278 8.04452L33.9673 15.9841C35.813 15.3612 37.9283 15.779 39.3989 17.2495C40.8771 18.7294 41.2916 20.8627 40.6534 22.7144L48.3053 30.3669C50.1565 29.7287 52.2931 30.141 53.7708 31.6219C55.838 33.6875 55.838 37.036 53.7708 39.1026C51.7036 41.1698 48.3562 41.1698 46.2879 39.1026C44.7337 37.5473 44.3492 35.2641 45.1367 33.349L38.0011 26.2133L38 44.9936C38.5042 45.2424 38.9794 45.5749 39.3994 45.9933C41.4655 48.0588 41.4655 51.4062 39.3994 53.4762C37.3328 55.5417 33.9832 55.5417 31.9187 53.4762C29.8526 51.4068 29.8526 48.0594 31.9187 45.9933C32.4295 45.483 33.0201 45.0975 33.6507 44.8394V25.8852C33.0201 25.6271 32.4306 25.2443 31.9187 24.7308C30.3536 23.1667 29.9768 20.8698 30.7796 18.947L22.9522 11.1196L2.28467 31.786C0.54834 33.5234 0.54834 36.3387 2.28467 38.0751L32.4268 68.2155C34.1626 69.9513 36.9768 69.9513 38.7153 68.2155L68.7158 38.2151C70.4515 36.4782 70.4515 33.6612 68.7152 31.9255Z" fill="#E1B98E"/>
</svg>
