<svg width="71" height="70" viewBox="0 0 71 70" fill="none" xmlns="http://www.w3.org/2000/svg">
<path d="M1.59375 0.546875V68.9062H69.9531V0.546875H1.59375ZM37.7526 58.7962C36.7436 60.8464 34.8175 62.1934 32.5857 62.8436C29.1563 63.6311 25.8761 63.1821 23.4359 61.7176C21.803 60.7157 20.5277 59.1735 19.662 57.3967L24.8682 54.2084C24.9136 54.2276 25.0503 54.4748 25.233 54.7941C25.8969 55.9065 26.4695 56.694 27.5949 57.2469C28.7007 57.6242 31.1283 57.8654 32.0656 55.9196C32.6382 54.9298 32.4561 51.748 32.4561 48.2278C32.4555 42.6962 32.4812 37.1875 32.4812 31.7188H38.8846C38.8846 37.7344 38.9174 43.4317 38.8846 49.3019C38.8983 52.9003 39.2105 56.1083 37.7526 58.7962ZM64.3165 56.9871C62.0907 64.6007 49.681 64.8479 44.722 59.8177C43.6741 58.6337 43.0173 58.0152 42.3923 56.6486C45.0277 55.1327 45.0277 55.1327 47.592 53.649C48.9848 55.79 50.2727 56.9674 52.5898 57.4492C55.7333 57.8331 58.8959 56.753 58.1866 53.4144C57.4576 50.6877 51.7498 50.0243 47.8654 47.1084C43.9219 44.4598 42.9977 38.0242 46.2384 34.347C47.3185 32.987 49.1604 31.972 51.093 31.4841L53.1099 31.2233C56.9823 31.1451 59.4028 32.1677 61.1796 34.1518C61.674 34.6527 62.0776 35.193 62.8323 36.3639C60.7695 37.6786 60.776 37.666 57.8213 39.579C57.1902 38.2195 56.1429 37.3663 55.036 36.9955C53.3177 36.4749 51.151 37.0409 50.7015 38.8566C50.5456 39.416 50.5779 39.9366 50.8256 40.8609C51.5218 42.4484 53.858 43.1386 55.9537 44.1016C61.9863 46.5484 64.0234 49.1717 64.5243 52.2944C65.0066 54.9828 64.4078 56.7268 64.3165 56.9871Z" fill="#E1B98E"/>
</svg>
