<svg width="40" height="40" viewBox="0 0 40 40" fill="none" xmlns="http://www.w3.org/2000/svg">
<path d="M10.8335 13.3334C12.2142 13.3334 13.3335 12.2141 13.3335 10.8334C13.3335 9.45266 12.2142 8.33337 10.8335 8.33337C9.45278 8.33337 8.3335 9.45266 8.3335 10.8334C8.3335 12.2141 9.45278 13.3334 10.8335 13.3334Z" fill="#D6D2CF"/>
<path d="M8.3335 16.6667C8.3335 15.7462 9.0797 15 10.0002 15H11.6668C12.5873 15 13.3335 15.7462 13.3335 16.6667V30C13.3335 30.9205 12.5873 31.6667 11.6668 31.6667H10.0002C9.0797 31.6667 8.3335 30.9205 8.3335 30V16.6667Z" fill="#D6D2CF"/>
<path d="M18.3332 31.6667H19.9998C20.9203 31.6667 21.6665 30.9205 21.6665 30V22.5C21.6665 20 26.6665 18.3333 26.6665 21.6667V30.0007C26.6665 30.9212 27.4127 31.6667 28.3332 31.6667H29.9998C30.9203 31.6667 31.6665 30.9205 31.6665 30V20C31.6665 16.6667 29.1665 15 25.8332 15C22.4998 15 21.6665 17.5 21.6665 17.5V16.6667C21.6665 15.7462 20.9203 15 19.9998 15H18.3332C17.4127 15 16.6665 15.7462 16.6665 16.6667V30C16.6665 30.9205 17.4127 31.6667 18.3332 31.6667Z" fill="#D6D2CF"/>
<path fill-rule="evenodd" clip-rule="evenodd" d="M33.3332 1.66669C36.0947 1.66669 38.3332 3.90527 38.3332 6.66669V33.3334C38.3332 36.0949 36.0947 38.3334 33.3332 38.3334H6.6665C3.90509 38.3334 1.6665 36.0949 1.6665 33.3334V6.66669C1.6665 3.90527 3.90509 1.66669 6.6665 1.66669H33.3332ZM33.3332 5.00002C34.2537 5.00002 34.9998 5.74622 34.9998 6.66669V33.3334C34.9998 34.2539 34.2537 35 33.3332 35H6.6665C5.74604 35 4.99984 34.2539 4.99984 33.3334V6.66669C4.99984 5.74622 5.74604 5.00002 6.6665 5.00002H33.3332Z" fill="#D6D2CF"/>
</svg>
