<svg width="71" height="70" viewBox="0 0 71 70" fill="none" xmlns="http://www.w3.org/2000/svg">
<path d="M62.1716 16.5889L38.0561 2.58621C36.5352 1.71996 34.555 1.71996 33.0221 2.58621L8.64898 16.5889C7.07945 17.4918 5.96875 19.1888 5.96875 21.0039V48.9722C5.96875 50.7872 7.10844 52.4847 8.67797 53.3925L15.1174 57.05C18.1952 58.566 19.283 58.566 20.6835 58.566C25.2406 58.566 27.8438 55.8103 27.8438 51.0038V23.3921C27.8438 23.0021 27.6409 22.4219 27.258 22.4219H24.183C23.7936 22.4219 22.9219 23.0021 22.9219 23.3915V51.0032C22.9219 53.1339 20.9947 55.2541 17.393 53.4532L10.7391 49.618C10.5073 49.4922 10.3438 49.239 10.3438 48.9722V21.0039C10.3438 20.7403 10.6473 20.4756 10.8808 20.3405L35.1752 6.36184C35.4021 6.23332 35.7357 6.23332 35.9621 6.36184L59.9601 20.3372C60.1898 20.4756 60.1088 20.7321 60.1088 21.0039V48.9722C60.1088 49.239 60.2089 49.4988 59.982 49.6273L35.8724 63.6142C35.6657 63.7383 35.4092 63.7383 35.1828 63.6142L28.9993 59.9233C28.8128 59.815 28.5913 59.7762 28.4125 59.8763C26.692 60.8514 26.3748 60.981 24.761 61.5404C24.364 61.6788 23.7783 61.9189 24.9852 62.5954L33.0779 67.3827C33.8528 67.8311 34.7333 68.0641 35.6192 68.0641C36.5172 68.0641 37.3966 67.8311 38.1715 67.3827L62.1711 53.3925C63.7406 52.4782 64.4844 50.7872 64.4844 48.9722V21.0039C64.4844 19.1888 63.7406 17.4962 62.1716 16.5889ZM43.107 44.5403C36.6944 44.5403 35.2818 42.7711 34.8109 39.5823C34.7563 39.2389 34.4648 38.8282 34.1153 38.8282H30.9812C30.5934 38.8282 30.2817 39.2985 30.2817 39.6846C30.2817 43.7675 32.5015 48.7146 43.1076 48.7146C50.7852 48.7146 55.187 45.7314 55.187 40.4518C55.187 35.2171 51.6503 33.8434 44.2046 32.8579C36.6785 31.8632 35.914 31.3606 35.914 29.5975C35.914 28.1439 36.5615 26.2052 42.1341 26.2052C47.1134 26.2052 48.9487 27.2738 49.704 30.63C49.7685 30.9455 50.0567 31.1719 50.3821 31.1719H53.5288C53.7224 31.1719 53.9073 31.0937 54.0429 30.9554C54.1741 30.8066 54.2436 30.6201 54.2261 30.42C53.7388 24.6406 49.8992 21.9472 42.1336 21.9472C35.226 21.9472 31.1053 24.8643 31.1053 29.7539C31.1053 35.0575 35.2052 36.5231 41.8361 37.1788C49.7685 37.9564 50.3854 39.1158 50.3854 40.6761C50.3854 43.3858 48.2099 44.5403 43.107 44.5403Z" fill="#E1B98E"/>
</svg>
