<svg width="71" height="70" viewBox="0 0 71 70" fill="none" xmlns="http://www.w3.org/2000/svg">
<path d="M35.4996 18.0681C17.0481 18.0681 2.08887 25.6489 2.08887 34.9999C2.08887 44.3509 17.0481 51.9317 35.4996 51.9317C53.9512 51.9317 68.9104 44.3509 68.9104 34.9999C68.9104 25.6489 53.9512 18.0681 35.4996 18.0681ZM26.806 38.2987C26.0086 39.0446 25.1232 39.3525 24.1482 39.6697C23.1731 39.9874 21.9322 39.9218 20.4234 39.9218H17.0038L16.0561 45.3905H12.0633L15.6262 26.7968H23.3043C25.6143 26.7968 27.2993 27.4612 28.3586 28.6737C29.4179 29.8861 29.7361 31.6071 29.3139 33.7798C29.1395 34.6751 28.8458 35.5074 28.4313 36.249C28.0162 36.9911 27.4743 37.684 26.806 38.2987ZM38.4604 39.9218L40.036 32.0359C40.2154 31.1127 40.1497 30.4269 39.8386 30.0917C39.5268 29.7559 38.864 29.5312 37.8507 29.5312H34.6843L32.6439 39.9218H28.6823L32.2452 21.8749H36.2068L35.2596 26.7968H38.7886C41.0094 26.7968 42.5407 27.2425 43.3834 28.0169C44.2261 28.7912 44.4788 29.8522 44.1419 31.5869L42.4843 39.9218H38.4604ZM60.4771 33.8088C60.3032 34.7041 60.0089 35.5222 59.595 36.2632C59.1804 37.0053 58.639 37.684 57.9702 38.2987C57.1729 39.0446 56.2869 39.3525 55.3124 39.6697C54.3379 39.9874 53.0959 39.9218 51.5871 39.9218H48.1675L47.2203 45.3905H43.2275L46.7899 26.7968H54.4686C56.7786 26.7968 58.4635 27.4612 59.5222 28.6737C60.5804 29.8861 60.8993 31.6366 60.4771 33.8088ZM52.9554 29.5312H50.2204L48.7291 37.1874H51.1583C52.7672 37.1874 53.9671 37.0288 54.7546 36.4218C55.5432 35.8158 56.0742 34.8752 56.3504 33.4572C56.615 32.0949 56.4947 31.0323 55.9894 30.4723C55.4836 29.9123 54.4724 29.5312 52.9554 29.5312ZM21.7917 29.5312H19.0562L17.5649 37.1874H19.9936C21.603 37.1874 22.8023 37.0288 23.5904 36.4218C24.3784 35.8158 24.91 34.8752 25.1856 33.4572C25.4503 32.0949 25.33 31.0323 24.8246 30.4723C24.3193 29.9123 23.3087 29.5312 21.7917 29.5312Z" fill="#E1B98E"/>
</svg>
