<svg width="71" height="70" viewBox="0 0 71 70" fill="none" xmlns="http://www.w3.org/2000/svg">
<g clip-path="url(#clip0_455_77)">
<path d="M35.5 11.6667C30.7121 11.6667 26.5958 12.959 23.3648 15.7285C20.1569 18.478 18.0584 22.4808 16.8943 27.4699C16.6402 28.5587 17.1943 29.6747 18.2152 30.1306C19.2362 30.5865 20.437 30.2541 21.0781 29.3381C22.5557 27.2273 24.0311 25.9589 25.4486 25.308C26.8214 24.6776 28.3012 24.5499 29.9962 25.0039C31.7067 25.4621 33.0309 26.804 35.1097 29.0648L35.1768 29.1379C36.7439 30.8423 38.6554 32.9215 41.27 34.5347C43.983 36.2087 47.3591 37.3334 51.8335 37.3334C56.621 37.3334 60.7375 36.0411 63.9687 33.2716C67.1761 30.5221 69.2747 26.5193 70.439 21.5303C70.6929 20.4414 70.1389 19.3254 69.1179 18.8695C68.0973 18.4136 66.8961 18.746 66.2549 19.662C64.7774 21.7728 63.3023 23.0411 61.8845 23.6921C60.5116 24.3225 59.0318 24.4502 57.3369 23.9962C55.6265 23.538 54.3021 22.1961 52.2236 19.9352L52.1564 19.8622C50.5893 18.1578 48.6779 16.0785 46.0632 14.4654C43.3503 12.7915 39.9742 11.6667 35.5 11.6667Z" fill="#E1B98E"/>
<path d="M19.1669 32.6665C14.3791 32.6665 10.2628 33.9588 7.03175 36.7282C3.82393 39.4778 1.72543 43.4805 0.561304 48.4698C0.30724 49.5585 0.861276 50.6743 1.8822 51.1302C2.90313 51.5862 4.10395 51.2539 4.74514 50.3378C6.22273 48.2271 7.69805 46.9587 9.1156 46.3078C10.4884 45.6774 11.9682 45.5497 13.6632 46.0037C15.3737 46.4619 16.6979 47.8038 18.7767 50.0648L18.8438 50.1376C20.4108 51.8419 22.3225 53.9214 24.937 55.5346C27.65 57.2085 31.026 58.3332 35.5003 58.3332C40.2881 58.3332 44.4044 57.041 47.6357 54.2713C50.8431 51.5217 52.9417 47.5191 54.106 42.53C54.3599 41.4411 53.8059 40.3252 52.7849 39.8692C51.7643 39.4133 50.5631 39.7457 49.9219 40.6617C48.4444 42.7726 46.9692 44.0409 45.5516 44.6918C44.1788 45.3222 42.699 45.4499 41.004 44.9959C39.2935 44.5378 37.9694 43.1959 35.8906 40.935L35.8234 40.8619C34.2564 39.1575 32.3448 37.0783 29.7302 35.4651C27.0173 33.7912 23.6412 32.6665 19.1669 32.6665Z" fill="#E1B98E"/>
</g>
<defs>
<clipPath id="clip0_455_77">
<rect width="70" height="70" fill="white" transform="translate(0.5)"/>
</clipPath>
</defs>
</svg>
