<svg width="71" height="70" viewBox="0 0 71 70" fill="none" xmlns="http://www.w3.org/2000/svg">
<path d="M35.5518 69.0288C54.2959 69.0004 69.4695 53.753 69.4695 34.9448C69.4695 16.4424 54.3659 1.20429 36.3218 0.882176C17.3715 0.544207 1.53617 15.9212 1.53125 34.568C1.52578 53.7519 16.6316 69.0562 35.5518 69.0288ZM35.4966 2.5321C53.4926 2.52608 67.8311 17.1473 67.8256 35.4977C67.8196 52.8222 53.101 67.3149 35.5097 67.3187C17.588 67.3226 3.1757 52.7921 3.17625 34.7206C3.17735 17.1151 17.8139 2.53811 35.4966 2.5321ZM21.9144 19.6307C22.2086 20.6112 21.385 20.9525 20.5095 21.0208C19.588 21.0919 18.667 21.1614 17.5973 21.2429C21.128 31.7615 24.6055 42.1242 28.1657 52.7281C28.4195 52.313 28.5239 52.196 28.5698 52.0593C30.5244 46.2176 32.4898 40.3797 34.3946 34.5216C34.5685 33.9873 34.4821 33.2796 34.2918 32.7305C33.2839 29.8212 32.0764 26.9752 31.1927 24.0308C30.5884 22.0151 29.7866 20.7108 27.4039 20.9443C26.9981 20.9842 26.5027 20.1108 26.0482 19.6597C26.5978 19.3316 27.1436 18.7278 27.6981 18.7196C32.55 18.6458 37.4035 18.6458 42.2548 18.724C42.8116 18.7333 43.3573 19.3529 43.907 19.6892C43.4257 20.1289 43.0106 20.7884 42.4479 20.9585C41.545 21.2308 40.5437 21.1794 39.4631 21.2757C42.9975 31.7894 46.4592 42.0881 50.0445 52.7538C51.6474 47.4294 53.1388 42.5404 54.5891 37.6387C55.883 33.2632 55.1119 29.1769 52.7723 25.3231C52.0691 24.1643 51.205 23.0399 50.8063 21.7761C50.3535 20.3383 49.9773 18.7016 50.2173 17.2594C50.6248 14.8155 52.5 13.6019 55.0375 13.3695C41.1513 0.481864 19.3298 5.0953 11.2891 19.098C14.3845 18.9553 17.3398 18.7677 20.2973 18.7273C20.8562 18.7201 21.7831 19.1926 21.9144 19.6307ZM27.4471 62.2711C27.3826 62.4598 27.3788 62.6698 27.3279 62.9831C33.3123 64.6423 39.1814 64.5226 45.1883 62.4986L36.0117 37.3642C33.075 45.9015 30.2586 54.0849 27.4471 62.2711ZM22.8227 61.1347L8.99719 23.2089C2.76008 35.3922 7.50477 53.9805 22.8227 61.1347ZM64.6193 36.7648C65.0579 31.004 63.0706 23.0279 61.3545 21.9308C61.1631 24.05 61.2965 26.4076 60.6884 28.5557C59.2572 33.617 57.5072 38.5903 55.8217 43.5773C53.9897 48.9979 52.0855 54.3939 50.2124 59.8008C59.0127 54.5842 63.8488 46.8848 64.6193 36.7648Z" fill="#E1B98E"/>
</svg>
